<svg xmlns="http://www.w3.org/2000/svg"  viewBox="0 0 96 96" width="100px" height="100px" baseProfile="basic"><path fill="#e0e722" d="M46.33,62c-1.872,0-3.735-0.747-5.109-2.212L27.854,46.096	c-1.157-1.186-1.135-3.085,0.051-4.242c1.185-1.157,3.085-1.135,4.242,0.051L45.556,55.64c0.387,0.412,0.954,0.463,1.359,0.169	l32.998-31.964c1.188-1.153,3.087-1.124,4.242,0.067c1.152,1.19,1.122,3.089-0.068,4.242l-33.1,32.063	c-0.051,0.049-0.104,0.097-0.157,0.142C49.521,61.458,47.923,62,46.33,62z" opacity=".3"/><path fill="#e0e722" d="M46.329,61c-1.604,0-3.201-0.64-4.379-1.896L28.569,45.397	c-0.772-0.79-0.757-2.057,0.033-2.828c0.792-0.771,2.058-0.756,2.828,0.034L44.84,56.339c0.74,0.788,1.916,0.873,2.729,0.229	l33.04-32.005c0.794-0.769,2.06-0.748,2.828,0.045c0.769,0.793,0.748,2.06-0.045,2.828l-33.1,32.063	c-0.034,0.033-0.069,0.064-0.105,0.095C49.065,60.536,47.694,61,46.329,61z" opacity=".3"/><path fill="#44d62c" d="M49.121,85.66c-3.813,0-7.599-0.534-11.185-1.532	C20.602,79.299,4.897,62.759,11.38,37.854c0.009-0.033,0.018-0.065,0.027-0.098c4.205-14.162,13.861-23.579,27.188-26.515	c13.877-3.058,29.433,1.965,38.713,12.495c1.095,1.243,0.976,3.139-0.268,4.234c-1.243,1.094-3.138,0.977-4.234-0.267	C64.925,18.76,51.695,14.497,39.887,17.1c-11.085,2.442-19.149,10.366-22.713,22.315c-5.428,20.955,7.786,34.87,22.373,38.932	C54.13,82.411,72.64,77.33,78.826,56.583c1.982-7.65,1.622-14.736-1.07-21.062c-0.648-1.524,0.062-3.287,1.586-3.935	c1.521-0.648,3.285,0.06,3.936,1.585c3.184,7.481,3.647,16.116,1.343,24.972c-0.009,0.033-0.018,0.065-0.027,0.098	C78.782,77.812,63.743,85.66,49.121,85.66z M81.717,57.389h0.01H81.717z" opacity=".3"/><path fill="#44d62c" d="M49.088,84.655c-3.711,0-7.394-0.52-10.883-1.491	c-16.879-4.702-32.17-20.807-25.857-45.058c4.115-13.863,13.507-23.034,26.463-25.889c13.528-2.981,28.7,1.913,37.747,12.18	c0.73,0.829,0.651,2.092-0.178,2.823c-0.828,0.729-2.095,0.649-2.822-0.178c-8.116-9.208-21.735-13.594-33.886-10.918	C28.2,18.651,19.865,26.839,16.2,39.179c-5.613,21.571,8.024,35.938,23.078,40.131c15.057,4.193,34.157-1.057,40.521-22.491	c2.034-7.823,1.663-15.142-1.123-21.689c-0.433-1.016,0.04-2.191,1.057-2.624c1.021-0.433,2.192,0.042,2.623,1.057	c3.141,7.379,3.577,15.565,1.296,24.329C77.979,77.003,63.328,84.655,49.088,84.655z" opacity=".3"/><path fill="#e0e722" d="M46.31,59.992c-1.336,0-2.655-0.533-3.63-1.572L29.284,44.699c-0.386-0.396-0.378-1.028,0.018-1.414	c0.395-0.385,1.027-0.378,1.414,0.017l13.409,13.736c1.104,1.178,2.915,1.285,4.132,0.26l33.048-32.015	c0.395-0.383,1.028-0.375,1.414,0.022c0.384,0.396,0.374,1.03-0.023,1.414l-33.1,32.063C48.63,59.594,47.463,59.992,46.31,59.992z"/><path fill="#44d62c" d="M49.064,83.652c-3.611,0-7.194-0.505-10.591-1.451C22.051,77.626,7.173,61.956,13.315,38.358	c3.998-13.466,13.126-22.391,25.711-25.164c13.187-2.904,27.967,1.863,36.781,11.864c0.365,0.414,0.325,1.046-0.089,1.411	c-0.413,0.365-1.045,0.326-1.411-0.089c-8.349-9.473-22.353-13.989-34.852-11.233C27.614,17.756,19.015,26.19,15.242,38.895	C9.449,61.152,23.5,75.954,39.01,80.274c15.511,4.319,35.191-1.088,41.748-23.17c2.102-8.074,1.714-15.61-1.161-22.365	c-0.217-0.508,0.021-1.096,0.528-1.312c0.508-0.216,1.095,0.02,1.312,0.528c3.053,7.171,3.472,15.14,1.248,23.685	C77.171,76.21,62.919,83.651,49.064,83.652z"/></svg>